<svg width="35" height="36" viewBox="0 0 35 36" fill="none" xmlns="http://www.w3.org/2000/svg">
<path fill-rule="evenodd" clip-rule="evenodd" d="M17.5001 0.981201C7.83635 0.981201 0 9.01416 0 18.9241C0 26.8519 5.01432 33.5778 11.9677 35.9504C12.8423 36.1165 13.1634 35.5611 13.1634 35.0872C13.1634 34.6593 13.1471 33.2459 13.1396 31.7465C8.27104 32.832 7.24372 29.6295 7.24372 29.6295C6.44765 27.5555 5.30064 27.004 5.30064 27.004C3.71285 25.8904 5.42033 25.9132 5.42033 25.9132C7.17764 26.0395 8.10296 27.7623 8.10296 27.7623C9.6638 30.5054 12.1969 29.7124 13.1955 29.2539C13.3526 28.0945 13.8061 27.3023 14.3066 26.8546C10.4196 26.4008 6.33347 24.8623 6.33347 17.987C6.33347 16.028 7.0171 14.4273 8.13658 13.1707C7.95487 12.7185 7.35587 10.8938 8.30611 8.42228C8.30611 8.42228 9.77566 7.94003 13.1199 10.2615C14.5158 9.86396 16.0129 9.66459 17.5001 9.65775C18.9874 9.66459 20.4856 9.86396 21.8842 10.2615C25.2243 7.94003 26.6919 8.42228 26.6919 8.42228C27.6444 10.8938 27.0451 12.7185 26.8634 13.1707C27.9855 14.4273 28.6645 16.028 28.6645 17.987C28.6645 24.8786 24.5706 26.3961 20.6737 26.8403C21.3014 27.3971 21.8607 28.4891 21.8607 30.1631C21.8607 32.5637 21.8404 34.4959 21.8404 35.0872C21.8404 35.5647 22.1554 36.1242 23.0425 35.948C29.9921 33.5727 35 26.8492 35 18.9241C35 9.01416 27.1648 0.981201 17.5001 0.981201Z" fill="#C9C9C9"/>
<path fill-rule="evenodd" clip-rule="evenodd" d="M6.62819 26.7434C6.58965 26.8329 6.45287 26.8593 6.32825 26.7981C6.20132 26.7396 6.13003 26.618 6.17119 26.5286C6.20886 26.4368 6.34593 26.4115 6.47257 26.4724C6.59979 26.5313 6.67224 26.654 6.62819 26.7434Z" fill="#C9C9C9"/>
<path fill-rule="evenodd" clip-rule="evenodd" d="M7.33703 27.554C7.25357 27.6333 7.09042 27.5965 6.97971 27.4711C6.86525 27.346 6.8438 27.1787 6.92842 27.0982C7.01449 27.0189 7.17272 27.056 7.28748 27.1811C7.40195 27.3077 7.42426 27.4738 7.33703 27.554Z" fill="#C9C9C9"/>
<path fill-rule="evenodd" clip-rule="evenodd" d="M8.02703 28.5874C7.91981 28.6638 7.74448 28.5922 7.6361 28.4326C7.52888 28.2731 7.52888 28.0817 7.63842 28.0051C7.74709 27.9284 7.91981 27.9973 8.02964 28.1557C8.13658 28.3176 8.13658 28.5093 8.02703 28.5874Z" fill="#C9C9C9"/>
<path fill-rule="evenodd" clip-rule="evenodd" d="M8.97235 29.5858C8.87642 29.6943 8.67212 29.6651 8.52258 29.5172C8.36957 29.3725 8.32697 29.1671 8.42318 29.0587C8.52027 28.9499 8.72573 28.9805 8.87642 29.1273C9.02828 29.2717 9.07464 29.4785 8.97235 29.5858Z" fill="#C9C9C9"/>
<path fill-rule="evenodd" clip-rule="evenodd" d="M10.2764 30.1655C10.2341 30.306 10.0373 30.3699 9.83912 30.3102C9.64119 30.2487 9.51165 30.0841 9.55165 29.9421C9.5928 29.8006 9.79044 29.7341 9.99011 29.7979C10.1877 29.8592 10.3176 30.0226 10.2764 30.1655Z" fill="#C9C9C9"/>
<path fill-rule="evenodd" clip-rule="evenodd" d="M11.7086 30.2731C11.7135 30.421 11.5454 30.5438 11.3374 30.5461C11.1281 30.5512 10.9589 30.4314 10.9566 30.2858C10.9566 30.1364 11.1209 30.0149 11.3301 30.0113C11.5382 30.0071 11.7086 30.126 11.7086 30.2731Z" fill="#C9C9C9"/>
<path fill-rule="evenodd" clip-rule="evenodd" d="M13.0414 30.0404C13.0663 30.1848 12.9217 30.3331 12.715 30.3723C12.5119 30.4106 12.3238 30.3215 12.298 30.1783C12.2728 30.0303 12.42 29.882 12.6229 29.8437C12.8298 29.8069 13.015 29.8936 13.0414 30.0404Z" fill="#C9C9C9"/>
</svg>
